<?xml version="1.0" encoding="utf-8"?>
<!-- Generator: Adobe Illustrator 21.1.0, SVG Export Plug-In . SVG Version: 6.00 Build 0)  -->
<svg version="1.1" xmlns="http://www.w3.org/2000/svg" xmlns:xlink="http://www.w3.org/1999/xlink" x="0px" y="0px"
	 viewBox="0 0 248 114.7" style="enable-background:new 0 0 248 114.7;" xml:space="preserve">
<style type="text/css">
	.st0{fill:#FFFFFF;}
	.st1{enable-background:new    ;}
	.st2{fill:none;stroke:#FFFFFF;stroke-width:2;stroke-miterlimit:10;}
	.st3{fill:none;}
</style>
<g id="Layer_2">
</g>
<g id="Layer_3">
	<title>ml2-white-on-transparent-final-0519</title>
	
		<image style="overflow:visible;enable-background:new    ;" width="394" height="375" xlink:href="54CCD78F717268DC.png"  transform="matrix(0.2388 0 0 0.2387 0.62 0.2)">
	</image>
	<path class="st0" d="M192.9,36.9"/>
	<g class="st1">
		<path class="st0" d="M122.7,22.4h2.1l30.5,43.4l30.5-43.4h2v70h-2.2V26.1l-30.3,43.2h-0.1l-30.3-43.2v66.3h-2.2V22.4z"/>
	</g>
	<g class="st1">
		<path class="st2" d="M122.7,22.4h2.1l30.5,43.4l30.5-43.4h2v70h-2.2V26.1l-30.3,43.2h-0.1l-30.3-43.2v66.3h-2.2V22.4z"/>
	</g>
	<path class="st0" d="M208.6,91"/>
	<g class="st1">
		<path class="st0" d="M199,22.3h2.2v68h43v2H199V22.3z"/>
	</g>
	<g class="st1">
		<path class="st2" d="M199,22.3h2.2v68h43v2H199V22.3z"/>
	</g>
	<path class="st0" d="M205.7,24.6"/>
	<g class="st1">
		<path class="st0" d="M220.3,10.5l-1.2-0.8c1.8-2.8,3.8-4.5,7.5-4.5c3.6,0,6.2,2.5,6.2,5.8c0,2.9-1.6,4.8-5.2,8.2l-6.4,5.8h11.9
			v1.5h-14.3v-1.2l7.8-7.1c3.5-3.1,4.7-4.9,4.7-7.2c0-2.7-2.2-4.5-4.7-4.5C223.8,6.6,222.1,8,220.3,10.5z"/>
	</g>
	<g class="st1">
		<path class="st2" d="M220.3,10.5l-1.2-0.8c1.8-2.8,3.8-4.5,7.5-4.5c3.6,0,6.2,2.5,6.2,5.8c0,2.9-1.6,4.8-5.2,8.2l-6.4,5.8h11.9
			v1.5h-14.3v-1.2l7.8-7.1c3.5-3.1,4.7-4.9,4.7-7.2c0-2.7-2.2-4.5-4.7-4.5C223.8,6.6,222.1,8,220.3,10.5z"/>
	</g>
	<rect y="70.2" class="st3" width="95.3" height="42.4"/>
	<path class="st0" d="M94.2,114.8H0.6V86.2h93.6L94.2,114.8z M34.8,107.5V90.8h-3.6v10.3l-7.8-10.3H20v16.8h3.6V96.9l8.1,10.7
		L34.8,107.5z M53.6,90.8h-4.2l-4.1,6.7l-4-6.7h-4.3l6.4,10.2v6.6h3.7v-6.7L53.6,90.8z M70.2,100.2v-9.5h-3.7v9.6c0,2.7-1.4,4-3.6,4
		s-3.6-1.4-3.6-4.1v-9.5h-3.7v9.6c0,4.9,2.7,7.5,7.2,7.5S70.2,105.3,70.2,100.2L70.2,100.2z"/>
</g>
</svg>
